REM DIRINDEX 1\2,1\3
REM DIRNAME folder01,folder02,folder03
TITLE ""
FILE "CD1Track28.mp3" MP3
  TRACK 01 AUDIO
    TITLE "0:"
    INDEX 01 00:00:00
  TRACK 02 AUDIO
    TITLE "2:cjc102_1220"
    INDEX 01 00:00:25
  TRACK 03 AUDIO
    TITLE "0:"
    INDEX 01 00:01:30
  TRACK 04 AUDIO
    TITLE "3:cjc102_1221"
    INDEX 01 00:01:56
  TRACK 05 AUDIO
    TITLE "0:"
    INDEX 01 00:03:19
  TRACK 06 AUDIO
    TITLE "3:cjc102_1222"
    INDEX 01 00:03:21
  TRACK 07 AUDIO
    TITLE "0:"
    INDEX 01 00:08:15
  TRACK 08 AUDIO
    TITLE "2:cjc102_1223"
    INDEX 01 00:08:21
  TRACK 09 AUDIO
    TITLE "0:"
    INDEX 01 00:09:24
  TRACK 10 AUDIO
    TITLE "3:cjc102_1224"
    INDEX 01 00:10:61
  TRACK 11 AUDIO
    TITLE "0:"
    INDEX 01 00:11:58
  TRACK 12 AUDIO
    TITLE "2:cjc102_1225"
    INDEX 01 00:12:14
  TRACK 13 AUDIO
    TITLE "0:"
    INDEX 01 00:13:33
  TRACK 14 AUDIO
    TITLE "3:cjc102_1226"
    INDEX 01 00:13:63
  TRACK 15 AUDIO
    TITLE "0:"
    INDEX 01 00:14:49
  TRACK 16 AUDIO
    TITLE "2:cjc102_1227"
    INDEX 01 00:15:21
  TRACK 17 AUDIO
    TITLE "0:"
    INDEX 01 00:16:55
  TRACK 18 AUDIO
    TITLE "3:cjc102_1228"
    INDEX 01 00:17:39
  TRACK 19 AUDIO
    TITLE "0:"
    INDEX 01 00:18:39
  TRACK 20 AUDIO
    TITLE "2:cjc102_1229"
    INDEX 01 00:18:50
  TRACK 21 AUDIO
    TITLE "0:"
    INDEX 01 00:19:73
  TRACK 22 AUDIO
    TITLE "3:cjc102_1230"
    INDEX 01 00:20:71
  TRACK 23 AUDIO
    TITLE "0:"
    INDEX 01 00:21:64
  TRACK 24 AUDIO
    TITLE "2:cjc102_1231"
    INDEX 01 00:21:68
  TRACK 25 AUDIO
    TITLE "0:"
    INDEX 01 00:23:03
  TRACK 26 AUDIO
    TITLE "3:cjc102_1232"
    INDEX 01 00:24:22
  TRACK 27 AUDIO
    TITLE "0:"
    INDEX 01 00:25:01
  TRACK 28 AUDIO
    TITLE "2:cjc102_1233"
    INDEX 01 00:25:13
  TRACK 29 AUDIO
    TITLE "0:"
    INDEX 01 00:26:26
  TRACK 30 AUDIO
    TITLE "3:cjc102_1234"
    INDEX 01 00:27:12
  TRACK 31 AUDIO
    TITLE "0:"
    INDEX 01 00:28:12
  TRACK 32 AUDIO
    TITLE "2:cjc102_1235"
    INDEX 01 00:28:51
  TRACK 33 AUDIO
    TITLE "0:"
    INDEX 01 00:29:54
  TRACK 34 AUDIO
    TITLE "3:cjc102_1236"
    INDEX 01 00:30:38
  TRACK 35 AUDIO
    TITLE "0:"
    INDEX 01 00:31:33
  TRACK 36 AUDIO
    TITLE "2:cjc102_1237"
    INDEX 01 00:32:01
  TRACK 37 AUDIO
    TITLE "0:"
    INDEX 01 00:33:13
  TRACK 38 AUDIO
    TITLE "3:cjc102_1238"
    INDEX 01 00:34:00
  TRACK 39 AUDIO
    TITLE "0:"
    INDEX 01 00:34:73
  TRACK 40 AUDIO
    TITLE "2:cjc102_1239"
    INDEX 01 00:35:12
  TRACK 41 AUDIO
    TITLE "0:"
    INDEX 01 00:36:25
  TRACK 42 AUDIO
    TITLE "3:cjc102_1240"
    INDEX 01 00:36:74
  TRACK 43 AUDIO
    TITLE "0:"
    INDEX 01 00:37:67
  TRACK 44 AUDIO
    TITLE "2:cjc102_1241"
    INDEX 01 00:38:14
  TRACK 45 AUDIO
    TITLE "0:"
    INDEX 01 00:39:25
  TRACK 46 AUDIO
    TITLE "3:cjc102_1242"
    INDEX 01 00:39:54
  TRACK 47 AUDIO
    TITLE "0:"
    INDEX 01 00:40:48
  TRACK 48 AUDIO
    TITLE "2:cjc102_1243"
    INDEX 01 00:41:24
  TRACK 49 AUDIO
    TITLE "0:"
    INDEX 01 00:42:43
  TRACK 50 AUDIO
    TITLE "3:cjc102_1244"
    INDEX 01 00:43:37
  TRACK 51 AUDIO
    TITLE "0:"
    INDEX 01 00:44:52
  TRACK 52 AUDIO
    TITLE "2:cjc102_1245"
    INDEX 01 00:44:58
  TRACK 53 AUDIO
    TITLE "0:"
    INDEX 01 00:45:67
  TRACK 54 AUDIO
    TITLE "3:cjc102_1246"
    INDEX 01 00:46:31
  TRACK 55 AUDIO
    TITLE "0:"
    INDEX 01 00:47:42
  TRACK 56 AUDIO
    TITLE "2:cjc102_1247"
    INDEX 01 00:48:00
  TRACK 57 AUDIO
    TITLE "0:"
    INDEX 01 00:49:16
  TRACK 58 AUDIO
    TITLE "3:cjc102_1248"
    INDEX 01 00:49:65
  TRACK 59 AUDIO
    TITLE "0:"
    INDEX 01 00:51:09
  TRACK 60 AUDIO
    TITLE "2:cjc102_1249"
    INDEX 01 00:51:36
  TRACK 61 AUDIO
    TITLE "0:"
    INDEX 01 00:52:43
  TRACK 62 AUDIO
    TITLE "3:cjc102_1250"
    INDEX 01 00:53:23
  TRACK 63 AUDIO
    TITLE "0:"
    INDEX 01 00:54:40
  TRACK 64 AUDIO
    TITLE "2:cjc102_1251"
    INDEX 01 00:55:03
  TRACK 65 AUDIO
    TITLE "0:"
    INDEX 01 00:56:10
  TRACK 66 AUDIO
    TITLE "3:cjc102_1252"
    INDEX 01 00:56:25
  TRACK 67 AUDIO
    TITLE "0:"
    INDEX 01 00:57:33
  TRACK 68 AUDIO
    TITLE "2:cjc102_1253"
    INDEX 01 00:58:13
  TRACK 69 AUDIO
    TITLE "0:"
    INDEX 01 00:59:28
  TRACK 70 AUDIO
    TITLE "3:cjc102_1254"
    INDEX 01 01:00:33
  TRACK 71 AUDIO
    TITLE "0:"
    INDEX 01 01:01:44
  TRACK 72 AUDIO
    TITLE "2:cjc102_1255"
    INDEX 01 01:01:48
  TRACK 73 AUDIO
    TITLE "0:"
    INDEX 01 01:02:65
  TRACK 74 AUDIO
    TITLE "3:cjc102_1256"
    INDEX 01 01:04:15
  TRACK 75 AUDIO
    TITLE "0:"
    INDEX 01 01:05:34
  TRACK 76 AUDIO
    TITLE "2:cjc102_1257"
    INDEX 01 01:05:48
  TRACK 77 AUDIO
    TITLE "0:"
    INDEX 01 01:06:61
  TRACK 78 AUDIO
    TITLE "2:cjc102_1258"
    INDEX 01 01:07:19
  TRACK 79 AUDIO
    TITLE "0:"
    INDEX 01 01:08:13
  TRACK 80 AUDIO
    TITLE "3:cjc102_1259"
    INDEX 01 01:08:58
  TRACK 81 AUDIO
    TITLE "0:"
    INDEX 01 01:10:06
  TRACK 82 AUDIO
    TITLE "2:cjc102_1260"
    INDEX 01 01:10:41
  TRACK 83 AUDIO
    TITLE "0:"
    INDEX 01 01:11:49
  TRACK 84 AUDIO
    TITLE "2:cjc102_1261"
    INDEX 01 01:12:11
  TRACK 85 AUDIO
    TITLE "0:"
    INDEX 01 01:13:10
  TRACK 86 AUDIO
    TITLE "3:cjc102_1262"
    INDEX 01 01:14:65
  TRACK 87 AUDIO
    TITLE "0:"
    INDEX 01 01:16:01
  TRACK 88 AUDIO
    TITLE "2:cjc102_1263"
    INDEX 01 01:16:05
  TRACK 89 AUDIO
    TITLE "0:"
    INDEX 01 01:17:12
  TRACK 90 AUDIO
    TITLE "2:cjc102_1264"
    INDEX 01 01:17:47
  TRACK 91 AUDIO
    TITLE "0:"
    INDEX 01 01:18:43
  TRACK 92 AUDIO
    TITLE "3:cjc102_1265"
    INDEX 01 01:19:50
  TRACK 93 AUDIO
    TITLE "0:"
    INDEX 01 01:20:61
  TRACK 94 AUDIO
    TITLE "2:cjc102_1266"
    INDEX 01 01:21:02
  TRACK 95 AUDIO
    TITLE "0:"
    INDEX 01 01:22:15
  TRACK 96 AUDIO
    TITLE "2:cjc102_1267"
    INDEX 01 01:22:46
  TRACK 97 AUDIO
    TITLE "0:"
    INDEX 01 01:23:46
  TRACK 98 AUDIO
    TITLE "3:cjc102_1268"
    INDEX 01 01:24:32
  TRACK 99 AUDIO
    TITLE "0:"
    INDEX 01 01:25:60
  TRACK 100 AUDIO
    TITLE "2:cjc102_1269"
    INDEX 01 01:25:66
  TRACK 101 AUDIO
    TITLE "0:"
    INDEX 01 01:26:66
  TRACK 102 AUDIO
    TITLE "2:cjc102_1270"
    INDEX 01 01:27:22
  TRACK 103 AUDIO
    TITLE "0:"
    INDEX 01 01:28:12
  TRACK 104 AUDIO
    TITLE "3:cjc102_1271"
    INDEX 01 01:29:01
  TRACK 105 AUDIO
    TITLE "0:"
    INDEX 01 01:30:24
  TRACK 106 AUDIO
    TITLE "2:cjc102_1272"
    INDEX 01 01:30:44
  TRACK 107 AUDIO
    TITLE "0:"
    INDEX 01 01:31:49
  TRACK 108 AUDIO
    TITLE "2:cjc102_1273"
    INDEX 01 01:32:06
  TRACK 109 AUDIO
    TITLE "0:"
    INDEX 01 01:33:01
  TRACK 110 AUDIO
    TITLE "3:cjc102_1274"
    INDEX 01 01:33:38
  TRACK 111 AUDIO
    TITLE "0:"
    INDEX 01 01:34:65
  TRACK 112 AUDIO
    TITLE "2:cjc102_1275"
    INDEX 01 01:35:20
  TRACK 113 AUDIO
    TITLE "0:"
    INDEX 01 01:38:18
  TRACK 114 AUDIO
    TITLE "3:cjc102_1276"
    INDEX 01 01:39:29
  TRACK 115 AUDIO
    TITLE "0:"
    INDEX 01 01:40:58
  TRACK 116 AUDIO
    TITLE "2:cjc102_1277"
    INDEX 01 01:41:12
  TRACK 117 AUDIO
    TITLE "0:"
    INDEX 01 01:44:40
  TRACK 118 AUDIO
    TITLE "3:cjc102_1278"
    INDEX 01 01:45:71
  TRACK 119 AUDIO
    TITLE "0:"
    INDEX 01 01:47:15
  TRACK 120 AUDIO
    TITLE "2:cjc102_1279"
    INDEX 01 01:47:31
  TRACK 121 AUDIO
    TITLE "0:"
    INDEX 01 01:51:64
